<svg xmlns="http://www.w3.org/2000/svg" width="1600" height="900" viewBox="0 0 1600 900" role="img" aria-labelledby="title desc">
<title id="title">QualMeters smart water network illustration</title>
<desc id="desc">Apartment buildings, ultrasonic meters, a building gateway, NB-IoT connectivity and cloud analytics.</desc>

<defs>
  <linearGradient id="bg" x1="0" y1="0" x2="1" y2="1">
    <stop offset="0" stop-color="#F7FCFD"/>
    <stop offset="0.52" stop-color="#ECF8FA"/>
    <stop offset="1" stop-color="#EAF7F0"/>
  </linearGradient>
  <radialGradient id="halo" cx="72%" cy="18%" r="70%">
    <stop offset="0" stop-color="#D8F8FF" stop-opacity="0.95"/>
    <stop offset="0.55" stop-color="#EAFBFF" stop-opacity="0.35"/>
    <stop offset="1" stop-color="#FFFFFF" stop-opacity="0"/>
  </radialGradient>
  <linearGradient id="aqua" x1="0" y1="0" x2="1" y2="1">
    <stop offset="0" stop-color="#20C6E6"/>
    <stop offset="1" stop-color="#16C8A8"/>
  </linearGradient>
  <linearGradient id="deep" x1="0" y1="0" x2="1" y2="1">
    <stop offset="0" stop-color="#0B3851"/>
    <stop offset="1" stop-color="#071D2B"/>
  </linearGradient>
  <linearGradient id="greenline" x1="0" y1="0" x2="1" y2="1">
    <stop offset="0" stop-color="#16C8A8"/>
    <stop offset="1" stop-color="#7ED957"/>
  </linearGradient>
  <linearGradient id="metal" x1="0" y1="0" x2="1" y2="1">
    <stop offset="0" stop-color="#FFFFFF"/>
    <stop offset="0.45" stop-color="#DDEAF0"/>
    <stop offset="1" stop-color="#B7CDD8"/>
  </linearGradient>
  <filter id="softShadow" x="-30%" y="-30%" width="160%" height="160%">
    <feDropShadow dx="0" dy="18" stdDeviation="20" flood-color="#062334" flood-opacity="0.18"/>
  </filter>
  <filter id="smallShadow" x="-30%" y="-30%" width="160%" height="160%">
    <feDropShadow dx="0" dy="8" stdDeviation="10" flood-color="#062334" flood-opacity="0.14"/>
  </filter>
  <filter id="glow" x="-40%" y="-40%" width="180%" height="180%">
    <feGaussianBlur stdDeviation="8" result="coloredBlur"/>
    <feMerge>
      <feMergeNode in="coloredBlur"/>
      <feMergeNode in="SourceGraphic"/>
    </feMerge>
  </filter>
  <pattern id="dotgrid" width="34" height="34" patternUnits="userSpaceOnUse">
    <circle cx="3" cy="3" r="1.5" fill="#9ADBE8" opacity="0.38"/>
  </pattern>
  <style><![CDATA[
    .font { font-family: Inter, "Segoe UI", Arial, sans-serif; }
    .title { font-family: Inter, "Segoe UI", Arial, sans-serif; font-size: 52px; font-weight: 800; fill: #071D2B; letter-spacing:-1px; }
    .subtitle { font-family: Inter, "Segoe UI", Arial, sans-serif; font-size: 24px; font-weight: 500; fill: #6D8392; }
    .label { font-family: Inter, "Segoe UI", Arial, sans-serif; font-size: 24px; font-weight: 700; fill: #071D2B; }
    .small { font-family: Inter, "Segoe UI", Arial, sans-serif; font-size: 18px; font-weight: 600; fill: #6D8392; }
    .micro { font-family: Inter, "Segoe UI", Arial, sans-serif; font-size: 14px; font-weight: 700; fill: #6D8392; letter-spacing:.8px; }
    .white { fill:#fff; }
    .stroke { stroke:#071D2B; stroke-opacity:.13; }
    .line { fill:none; stroke:url(#aqua); stroke-width:5; stroke-linecap:round; stroke-linejoin:round; }
    .line2 { fill:none; stroke:#7ED957; stroke-width:5; stroke-linecap:round; stroke-linejoin:round; }
    .wire { fill:none; stroke:#22C5E4; stroke-width:4; stroke-dasharray:10 14; stroke-linecap:round; opacity:.86; }
    .device { fill:#fff; stroke:#D6E9EF; stroke-width:2; filter:url(#smallShadow); }
    .card { fill:#fff; stroke:#DCEFF4; stroke-width:2; filter:url(#softShadow); }
    .panel { fill:rgba(255,255,255,.86); stroke:#DCEFF4; stroke-width:2; }
  ]]></style>
</defs>

  <rect width="1600" height="900" fill="url(#bg)"/>
  <rect width="1600" height="900" fill="url(#halo)"/>
  <rect width="1600" height="900" fill="url(#dotgrid)" opacity="0.45"/>
  <path d="M-80 738 C 400 576, 544 864, 928 711 S 1488 549, 1690 684" fill="none" stroke="#B7EEF7" stroke-width="2" opacity=".65"/>
  <path d="M-90 225 C 224 126, 464 279, 752 162 S 1280 72, 1670 153" fill="none" stroke="#CFE9D1" stroke-width="2" opacity=".55"/>


<text x="92" y="100" class="title">Smart water data, from every apartment to every decision.</text>
<text x="94" y="143" class="subtitle">A complete wireless water-metering ecosystem for housing companies, municipalities and property portfolios.</text>
<g transform="translate(90,250)">
  <rect x="0" y="110" width="360" height="360" rx="28" fill="#ffffff" stroke="#DCEFF4" stroke-width="2" filter="url(#softShadow)"/>
  <rect x="38" y="60" width="96" height="420" rx="22" fill="#0B2D42"/>
  <rect x="156" y="0" width="150" height="480" rx="24" fill="#071D2B"/>
  <rect x="300" y="160" width="110" height="320" rx="22" fill="#0F4058"/>
  <g fill="#DDFBF3" opacity=".93">
    <rect x="62" y="102" width="36" height="28" rx="6"/><rect x="62" y="168" width="36" height="28" rx="6"/><rect x="62" y="234" width="36" height="28" rx="6"/><rect x="62" y="300" width="36" height="28" rx="6"/><rect x="62" y="366" width="36" height="28" rx="6"/>
    <rect x="184" y="72" width="36" height="28" rx="6"/><rect x="184" y="138" width="36" height="28" rx="6"/><rect x="184" y="204" width="36" height="28" rx="6"/><rect x="184" y="270" width="36" height="28" rx="6"/><rect x="184" y="336" width="36" height="28" rx="6"/>
    <rect x="242" y="72" width="36" height="28" rx="6"/><rect x="242" y="138" width="36" height="28" rx="6"/><rect x="242" y="204" width="36" height="28" rx="6"/><rect x="242" y="270" width="36" height="28" rx="6"/><rect x="242" y="336" width="36" height="28" rx="6"/>
    <rect x="334" y="210" width="36" height="28" rx="6"/><rect x="334" y="276" width="36" height="28" rx="6"/><rect x="334" y="342" width="36" height="28" rx="6"/>
  </g>
  <path d="M20 480 H440" stroke="#9CC9D9" stroke-width="8" stroke-linecap="round"/>

<g transform="translate(140,532) scale(0.55)">
  <rect x="-136" y="-55" width="272" height="110" rx="46" fill="url(#metal)" stroke="#9BB9C5" stroke-width="3" filter="url(#smallShadow)"/>
  <rect x="-62" y="-84" width="124" height="168" rx="34" fill="#ffffff" stroke="#C8DEE7" stroke-width="3"/>
  <circle cx="0" cy="-7" r="38" fill="#F3FBFD" stroke="#B8EAF2" stroke-width="4"/>
  <path d="M-25 -5 A25 25 0 0 1 30 -5" fill="none" stroke="url(#aqua)" stroke-width="6" stroke-linecap="round"/>
  <circle cx="0" cy="-7" r="4" fill="#071D2B"/>
  <path d="M0 -7 L18 -29" stroke="#071D2B" stroke-width="4" stroke-linecap="round"/>
  <rect x="-44" y="46" width="88" height="24" rx="12" fill="#E9F9F7"/>
  <text x="0" y="63" class="micro" text-anchor="middle" style="fill:#16C8A8;">COLD</text>
  <circle cx="-155" cy="0" r="18" fill="#C2D6DE"/>
  <circle cx="155" cy="0" r="18" fill="#C2D6DE"/>
</g>

<g transform="translate(330,532) scale(0.55)">
  <rect x="-136" y="-55" width="272" height="110" rx="46" fill="url(#metal)" stroke="#9BB9C5" stroke-width="3" filter="url(#smallShadow)"/>
  <rect x="-62" y="-84" width="124" height="168" rx="34" fill="#ffffff" stroke="#C8DEE7" stroke-width="3"/>
  <circle cx="0" cy="-7" r="38" fill="#F3FBFD" stroke="#B8EAF2" stroke-width="4"/>
  <path d="M-25 -5 A25 25 0 0 1 30 -5" fill="none" stroke="url(#aqua)" stroke-width="6" stroke-linecap="round"/>
  <circle cx="0" cy="-7" r="4" fill="#071D2B"/>
  <path d="M0 -7 L18 -29" stroke="#071D2B" stroke-width="4" stroke-linecap="round"/>
  <rect x="-44" y="46" width="88" height="24" rx="12" fill="#E9F9F7"/>
  <text x="0" y="63" class="micro" text-anchor="middle" style="fill:#16C8A8;">HOT</text>
  <circle cx="-155" cy="0" r="18" fill="#C2D6DE"/>
  <circle cx="155" cy="0" r="18" fill="#C2D6DE"/>
</g>
</g>
<g transform="translate(645,360)">
  <rect x="0" y="0" width="230" height="260" rx="34" fill="#ffffff" stroke="#DCEFF4" stroke-width="2" filter="url(#softShadow)"/>
  <rect x="56" y="42" width="118" height="142" rx="24" fill="#071D2B"/>
  <circle cx="115" cy="86" r="28" fill="url(#aqua)"/>
  <path d="M82 157 H148" stroke="#E6F4F7" stroke-width="10" stroke-linecap="round"/>
  <path d="M82 181 H148" stroke="#E6F4F7" stroke-width="10" stroke-linecap="round"/>
  <text x="115" y="232" class="small" text-anchor="middle" style="fill:#071D2B;font-weight:800;">Edge Gateway</text>
</g>

<g transform="translate(1035,320) scale(1.35)">
  <path d="M113 91H38C17 91 0 75 0 55s15-36 35-37C43 6 57 0 73 0c26 0 48 18 54 43 2 0 4-.1 6-.1 23 0 42 19 42 42S152 91 113 91Z" fill="#ffffff" stroke="#CDECF3" stroke-width="3" filter="url(#smallShadow)"/>
  <text x="88" y="56" class="small" text-anchor="middle" style="font-size:17px; fill:#071D2B; font-weight:800;">QualMeters Cloud</text>
</g>

<g transform="translate(1045,510)">
  <rect x="0" y="0" width="410" height="240" rx="28" fill="#ffffff" stroke="#DCEFF4" stroke-width="2" filter="url(#smallShadow)"/>
  <rect x="0" y="0" width="410" height="62" rx="28" fill="#071D2B"/>
  <rect x="0" y="38" width="410" height="24" fill="#071D2B"/>
  <text x="28" y="40" class="small" style="fill:#ffffff; font-weight:800;">Water Intelligence</text>
  <rect x="28" y="86" width="110" height="80" rx="18" fill="#EAFBFF"/>
  <rect x="156" y="86" width="110" height="80" rx="18" fill="#E9F9F7"/>
  <rect x="284" y="86" width="98" height="80" rx="18" fill="#F0F7FF"/>
  <path d="M36 230 C78 180, 122 202, 162 174 S246 210, 286 162 S350 172, 372 128" class="line"/>
  <line x1="36" y1="236" x2="374" y2="236" stroke="#DCEFF4" stroke-width="2"/>
  <line x1="36" y1="186" x2="374" y2="186" stroke="#DCEFF4" stroke-width="2"/>
</g>
<path d="M475 548 C 560 505, 590 475, 645 475" class="wire"/>
<path d="M875 460 C 950 420, 990 390, 1035 386" class="wire"/>
<path d="M474 595 C 735 685, 830 300, 1038 364" class="wire" opacity=".55"/>
<rect x="108" y="785" width="190" height="44" rx="22.0" fill="url(#aqua)" filter="url(#smallShadow)"/><text x="203.0" y="814.0" class="micro" fill="#fff" text-anchor="middle" style="fill:#fff;">Wireless M-Bus</text>

<rect x="320" y="785" width="126" height="44" rx="22.0" fill="#0B2D42" filter="url(#smallShadow)"/><text x="383.0" y="814.0" class="micro" fill="#fff" text-anchor="middle" style="fill:#fff;">Modbus</text>

<rect x="1040" y="250" width="106" height="44" rx="22.0" fill="url(#aqua)" filter="url(#smallShadow)"/><text x="1093.0" y="279.0" class="micro" fill="#fff" text-anchor="middle" style="fill:#fff;">NB-IoT</text>

<rect x="1245" y="250" width="126" height="44" rx="22.0" fill="url(#greenline)" filter="url(#smallShadow)"/><text x="1308.0" y="279.0" class="micro" fill="#fff" text-anchor="middle" style="fill:#fff;">REST API</text>

<circle cx="510" cy="544" r="10" fill="url(#aqua)" filter="url(#glow)"/>
<circle cx="620" cy="492" r="8" fill="url(#aqua)" filter="url(#glow)"/>
<circle cx="906" cy="437" r="9" fill="url(#aqua)" filter="url(#glow)"/>
<circle cx="1012" cy="392" r="8" fill="url(#aqua)" filter="url(#glow)"/>
<circle cx="1010" cy="364" r="10" fill="url(#greenline)" filter="url(#glow)"/>

</svg>
